<svg width="26" height="26" viewBox="0 0 26 26" fill="none" xmlns="http://www.w3.org/2000/svg">
<mask id="path-1-inside-1_7_879" fill="white">
<path d="M13 4.9779C11.8196 3.89252 10.2746 3.29012 8.67102 3.29007C7.82227 3.29095 6.98208 3.45968 6.19878 3.78653C5.41549 4.11338 4.70457 4.59191 4.10694 5.19457C1.55785 7.75449 1.55894 11.7585 4.1091 14.3076L12.0521 22.2506C12.2363 22.5745 12.5916 22.7836 13 22.7836C13.1677 22.7819 13.3327 22.741 13.4817 22.6641C13.6307 22.5871 13.7596 22.4763 13.858 22.3405L21.8909 14.3076C24.4411 11.7574 24.4411 7.75449 21.8888 5.19024C21.2914 4.58868 20.5811 4.11112 19.7986 3.78503C19.016 3.45893 18.1768 3.29072 17.329 3.29007C15.7255 3.29033 14.1805 3.8927 13 4.9779ZM20.3569 6.72207C22.0502 8.42399 22.0513 11.0825 20.3591 12.7757L13 20.1348L5.64094 12.7757C3.94877 11.0825 3.94985 8.42399 5.63877 6.7264C6.4621 5.9074 7.53894 5.45674 8.67102 5.45674C9.8031 5.45674 10.8756 5.9074 11.6924 6.72424L12.2341 7.2659C12.3346 7.36659 12.454 7.44648 12.5854 7.50098C12.7169 7.55548 12.8577 7.58354 13 7.58354C13.1423 7.58354 13.2832 7.55548 13.4146 7.50098C13.546 7.44648 13.6654 7.36659 13.7659 7.2659L14.3076 6.72424C15.9456 5.08949 18.7211 5.09382 20.3569 6.72207Z"/>
</mask>
<path d="M13 4.9779C11.8196 3.89252 10.2746 3.29012 8.67102 3.29007C7.82227 3.29095 6.98208 3.45968 6.19878 3.78653C5.41549 4.11338 4.70457 4.59191 4.10694 5.19457C1.55785 7.75449 1.55894 11.7585 4.1091 14.3076L12.0521 22.2506C12.2363 22.5745 12.5916 22.7836 13 22.7836C13.1677 22.7819 13.3327 22.741 13.4817 22.6641C13.6307 22.5871 13.7596 22.4763 13.858 22.3405L21.8909 14.3076C24.4411 11.7574 24.4411 7.75449 21.8888 5.19024C21.2914 4.58868 20.5811 4.11112 19.7986 3.78503C19.016 3.45893 18.1768 3.29072 17.329 3.29007C15.7255 3.29033 14.1805 3.8927 13 4.9779ZM20.3569 6.72207C22.0502 8.42399 22.0513 11.0825 20.3591 12.7757L13 20.1348L5.64094 12.7757C3.94877 11.0825 3.94985 8.42399 5.63877 6.7264C6.4621 5.9074 7.53894 5.45674 8.67102 5.45674C9.8031 5.45674 10.8756 5.9074 11.6924 6.72424L12.2341 7.2659C12.3346 7.36659 12.454 7.44648 12.5854 7.50098C12.7169 7.55548 12.8577 7.58354 13 7.58354C13.1423 7.58354 13.2832 7.55548 13.4146 7.50098C13.546 7.44648 13.6654 7.36659 13.7659 7.2659L14.3076 6.72424C15.9456 5.08949 18.7211 5.09382 20.3569 6.72207Z" fill="#4F4F4F"/>
<path d="M8.67102 3.29007L8.67121 -2.70993L8.66477 -2.70993L8.67102 3.29007ZM4.10694 5.19457L8.35857 9.42821L8.36731 9.41941L4.10694 5.19457ZM4.1091 14.3076L8.35174 10.0649L8.35084 10.064L4.1091 14.3076ZM12.0521 22.2506L17.268 19.285L16.8676 18.5808L16.2947 18.0079L12.0521 22.2506ZM13 22.7836V28.7836H13.0292L13.0583 28.7833L13 22.7836ZM13.858 22.3405L9.61538 18.0978L9.27893 18.4343L8.99972 18.8196L13.858 22.3405ZM21.8909 14.3076L26.1336 18.5502L21.8909 14.3076ZM21.8888 5.19024L17.6312 9.41792L17.6363 9.42298L21.8888 5.19024ZM17.329 3.29007L17.3336 -2.70993L17.328 -2.70993L17.329 3.29007ZM20.3591 12.7757L24.6017 17.0184L24.6031 17.017L20.3591 12.7757ZM13 20.1348L8.75738 24.3775L13 28.6201L17.2427 24.3775L13 20.1348ZM5.64094 12.7757L1.39694 17.017L1.3983 17.0184L5.64094 12.7757ZM5.63877 6.7264L1.40734 2.47258L1.39628 2.48358L1.38528 2.49463L5.63877 6.7264ZM12.2341 7.2659L16.4804 3.02687L16.4767 3.02326L12.2341 7.2659ZM13 7.58354V1.58354V7.58354ZM13.7659 7.2659L9.52329 3.02326L9.51969 3.02687L13.7659 7.2659ZM14.3076 6.72424L10.0692 2.47738L10.065 2.4816L14.3076 6.72424ZM17.0612 0.561236C14.7735 -1.54234 11.779 -2.70983 8.67121 -2.70993L8.67083 9.29007C8.77011 9.29007 8.86577 9.32737 8.93885 9.39457L17.0612 0.561236ZM8.66477 -2.70993C7.02491 -2.70822 5.40158 -2.38223 3.8882 -1.75073L8.50937 9.32378C8.56257 9.30158 8.61963 9.29013 8.67727 9.29007L8.66477 -2.70993ZM3.8882 -1.75073C2.37482 -1.11922 1.00125 -0.194668 -0.153434 0.969733L8.36731 9.41941C8.40789 9.37848 8.45617 9.34598 8.50937 9.32378L3.8882 -1.75073ZM-0.144691 0.960935C-5.02146 5.85843 -5.03063 13.6552 -0.132636 18.5511L8.35084 10.064C8.2732 9.98642 8.23887 9.92343 8.22189 9.88223C8.20362 9.83789 8.19581 9.79497 8.1958 9.75365C8.19579 9.71231 8.20359 9.66765 8.22304 9.62031C8.24123 9.57604 8.27771 9.50941 8.35856 9.4282L-0.144691 0.960935ZM-0.133538 18.5502L7.80946 26.4932L16.2947 18.0079L8.35174 10.0649L-0.133538 18.5502ZM6.83622 25.2161C8.12901 27.4899 10.5204 28.7836 13 28.7836V16.7836C14.6628 16.7836 16.3435 17.659 17.268 19.285L6.83622 25.2161ZM13.0583 28.7833C14.1642 28.7725 15.2521 28.5026 16.2348 27.9952L10.7287 17.333C11.4133 16.9794 12.1712 16.7913 12.9417 16.7839L13.0583 28.7833ZM16.2348 27.9952C17.2174 27.4877 18.0673 26.7569 18.7163 25.8614L8.99972 18.8196C9.45187 18.1957 10.044 17.6865 10.7287 17.333L16.2348 27.9952ZM18.1007 26.5831L26.1336 18.5502L17.6483 10.0649L9.61538 18.0978L18.1007 26.5831ZM26.1336 18.5502C31.0336 13.6501 31.0168 5.85581 26.1413 0.957489L17.6363 9.42298C17.7193 9.50643 17.7569 9.575 17.7756 9.62043C17.7955 9.66888 17.8033 9.71401 17.8033 9.75518C17.8033 9.79632 17.7956 9.83891 17.7774 9.88294C17.7606 9.92386 17.7263 9.98695 17.6483 10.0649L26.1336 18.5502ZM26.1463 0.962552C24.9918 -0.200086 23.6189 -1.12306 22.1065 -1.75332L17.4906 9.32337C17.5432 9.34531 17.591 9.37744 17.6312 9.41792L26.1463 0.962552ZM22.1065 -1.75332C20.5941 -2.38357 18.9721 -2.70867 17.3336 -2.70993L17.3244 9.29007C17.3815 9.29011 17.4379 9.30143 17.4906 9.32337L22.1065 -1.75332ZM17.328 -2.70993C14.2208 -2.70942 11.227 -1.54218 8.93944 0.5607L17.0606 9.39511C17.1341 9.32757 17.2302 9.29009 17.33 9.29007L17.328 -2.70993ZM16.1035 10.9539C15.823 10.6719 15.6277 10.2377 15.6276 9.75439C15.6274 9.27033 15.8234 8.82639 16.1151 8.53445L24.6031 17.017C28.6448 12.9727 28.6242 6.5246 24.6104 2.49027L16.1035 10.9539ZM16.1165 8.5331L8.75738 15.8922L17.2427 24.3775L24.6017 17.0184L16.1165 8.5331ZM17.2427 15.8922L9.88358 8.5331L1.3983 17.0184L8.75738 24.3775L17.2427 15.8922ZM9.88493 8.53445C10.1765 8.8262 10.3719 9.26916 10.3719 9.75195C10.372 10.2338 10.1777 10.6712 9.89225 10.9582L1.38528 2.49463C-2.62808 6.5286 -2.6408 12.9767 1.39694 17.017L9.88493 8.53445ZM9.8702 10.9802C9.60081 11.2482 9.16873 11.4567 8.67102 11.4567V-0.543263C5.90914 -0.543263 3.3234 0.56661 1.40734 2.47258L9.8702 10.9802ZM8.67102 11.4567C8.17165 11.4567 7.72947 11.2465 7.4498 10.9669L15.9351 2.4816C14.0217 0.568257 11.4346 -0.543263 8.67102 -0.543263V11.4567ZM7.4498 10.9669L7.99146 11.5085L16.4767 3.02326L15.9351 2.4816L7.4498 10.9669ZM7.98786 11.5049C8.64565 12.1639 9.42693 12.6866 10.287 13.0433L14.8839 1.95868C15.4811 2.20635 16.0236 2.56934 16.4803 3.02687L7.98786 11.5049ZM10.287 13.0433C11.147 13.3999 12.0689 13.5835 13 13.5835V1.58354C13.6465 1.58354 14.2867 1.71102 14.8839 1.95868L10.287 13.0433ZM13 13.5835C13.9311 13.5835 14.853 13.3999 15.7131 13.0433L11.1161 1.95868C11.7133 1.71102 12.3535 1.58354 13 1.58354V13.5835ZM15.7131 13.0433C16.5731 12.6866 17.3544 12.1639 18.0122 11.5049L9.51969 3.02687C9.97645 2.56934 10.5189 2.20635 11.1161 1.95868L15.7131 13.0433ZM18.0086 11.5085L18.5502 10.9669L10.065 2.4816L9.52329 3.02326L18.0086 11.5085ZM18.546 10.9711C18.146 11.3703 17.6807 11.4996 17.3316 11.4995C16.9839 11.4994 16.5226 11.3712 16.1242 10.9746L24.5897 2.46958C20.6181 -1.48362 14.0544 -1.49996 10.0692 2.47738L18.546 10.9711Z" fill="#4F4F4F" mask="url(#path-1-inside-1_7_879)"/>
</svg>
