<svg width="22" height="22" viewBox="0 0 22 22" fill="none" xmlns="http://www.w3.org/2000/svg">
<path fill-rule="evenodd" clip-rule="evenodd" d="M6.7998 18.56C6.7998 17.6322 7.55197 16.88 8.4798 16.88C9.40764 16.88 10.1598 17.6322 10.1598 18.56C10.1598 19.4879 9.40764 20.24 8.4798 20.24C7.55197 20.24 6.7998 19.4879 6.7998 18.56Z" fill="white"/>
<path fill-rule="evenodd" clip-rule="evenodd" d="M16.04 18.56C16.04 17.6322 16.7922 16.88 17.72 16.88C18.6479 16.88 19.4 17.6322 19.4 18.56C19.4 19.4879 18.6479 20.24 17.72 20.24C16.7922 20.24 16.04 19.4879 16.04 18.56Z" fill="white"/>
<path fill-rule="evenodd" clip-rule="evenodd" d="M0.919922 1.76001C0.919922 1.29609 1.296 0.920013 1.75992 0.920013H5.11992C5.52029 0.920013 5.86501 1.20258 5.94359 1.59516L6.64908 5.12001H20.2399C20.4903 5.12001 20.7276 5.23167 20.8871 5.42456C21.0467 5.61745 21.1119 5.87146 21.0651 6.11737L19.7199 13.1713C19.6046 13.7514 19.289 14.2724 18.8283 14.6433C18.3699 15.0123 17.7969 15.2092 17.2087 15.2H9.05838C8.47016 15.2092 7.89713 15.0123 7.43872 14.6433C6.97821 14.2726 6.6627 13.7518 6.54736 13.172C6.54731 13.1717 6.54741 13.1722 6.54736 13.172L5.14411 6.16094C5.13841 6.13775 5.13368 6.11418 5.12996 6.09028L4.43139 2.60001H1.75992C1.296 2.60001 0.919922 2.22393 0.919922 1.76001ZM6.98533 6.80001L8.19503 12.844C8.23343 13.0373 8.33863 13.211 8.4922 13.3347C8.64576 13.4583 8.83792 13.5239 9.03503 13.5202L9.05112 13.52H17.2159L17.232 13.5202C17.4291 13.5239 17.6213 13.4583 17.7748 13.3347C17.9277 13.2116 18.0326 13.039 18.0715 12.8467L19.2246 6.80001H6.98533Z" fill="white"/>
</svg>
