<svg width="16" height="16" viewBox="0 0 16 16" fill="none" xmlns="http://www.w3.org/2000/svg">
<path fill-rule="evenodd" clip-rule="evenodd" d="M1.91911 3.25247C2.29418 2.8774 2.80289 2.66669 3.33332 2.66669H12.6667C13.1971 2.66669 13.7058 2.8774 14.0809 3.25247C14.4559 3.62755 14.6667 4.13625 14.6667 4.66669V5.32301C14.6667 5.3295 14.6667 5.33599 14.6667 5.34247V11.3334C14.6667 11.8638 14.4559 12.3725 14.0809 12.7476C13.7058 13.1226 13.1971 13.3334 12.6667 13.3334H3.33332C2.80289 13.3334 2.29418 13.1226 1.91911 12.7476C1.54404 12.3725 1.33332 11.8638 1.33332 11.3334V5.34247C1.33323 5.33599 1.33323 5.3295 1.33332 5.32301V4.66669C1.33332 4.13625 1.54404 3.62755 1.91911 3.25247ZM2.66666 6.57903V11.3334C2.66666 11.5102 2.73689 11.6797 2.86192 11.8048C2.98694 11.9298 3.15651 12 3.33332 12H12.6667C12.8435 12 13.013 11.9298 13.1381 11.8048C13.2631 11.6797 13.3333 11.5102 13.3333 11.3334V6.57903L9.10999 9.39459C9.10992 9.39463 9.10986 9.39468 9.10979 9.39472C8.78117 9.61391 8.395 9.73089 7.99999 9.73089C7.60497 9.73089 7.21881 9.61391 6.89019 9.39472C6.89012 9.39468 6.89006 9.39463 6.88999 9.39459L2.66666 6.57903ZM13.3333 4.97656L8.37019 8.28532L8.36999 8.28545C8.26044 8.35855 8.13169 8.39755 7.99999 8.39755C7.86829 8.39755 7.73954 8.35855 7.62999 8.28545L7.62979 8.28532L2.66666 4.97656V4.66669C2.66666 4.48988 2.73689 4.32031 2.86192 4.19528C2.98694 4.07026 3.15651 4.00002 3.33332 4.00002H12.6667C12.8435 4.00002 13.013 4.07026 13.1381 4.19528C13.2631 4.32031 13.3333 4.48988 13.3333 4.66669V4.97656Z" fill="#333333"/>
</svg>
