<svg width="16" height="16" viewBox="0 0 16 16" fill="none" xmlns="http://www.w3.org/2000/svg">
<path d="M8 2C6.4087 2 4.88258 2.63214 3.75736 3.75736C2.63214 4.88258 2 6.4087 2 8V12.6667C2 13.4 2.6 14 3.33333 14H6V8.66667H3.33333V8C3.33333 5.42 5.42 3.33333 8 3.33333C10.58 3.33333 12.6667 5.42 12.6667 8V8.66667H10V14H12.6667C13.4 14 14 13.4 14 12.6667V8C14 6.4087 13.3679 4.88258 12.2426 3.75736C11.1174 2.63214 9.5913 2 8 2ZM4.66667 10V12.6667H3.33333V10H4.66667ZM12.6667 12.6667H11.3333V10H12.6667V12.6667Z" fill="#333333"/>
</svg>
