<svg width="24" height="24" viewBox="0 0 24 24" fill="none" xmlns="http://www.w3.org/2000/svg">
<path fill-rule="evenodd" clip-rule="evenodd" d="M4.95076 2.48106C5.72869 2.15804 6.56273 1.99176 7.40506 1.99176C8.24739 1.99176 9.08144 2.15804 9.85937 2.48106C10.6373 2.80408 11.3438 3.27749 11.9384 3.87414L11.9417 3.87748L12.0001 3.93659L12.0584 3.87749L12.0617 3.87414C12.6563 3.27749 13.3628 2.80408 14.1408 2.48106C14.9187 2.15804 15.7527 1.99176 16.5951 1.99176C17.4374 1.99176 18.2714 2.15804 19.0494 2.48106C19.827 2.80397 20.5333 3.27717 21.1278 3.87353C23.6728 6.41922 23.7294 10.6284 20.7137 13.7005L20.7072 13.7072L12.7072 21.7071C12.5196 21.8947 12.2653 22 12.0001 22C11.7348 22 11.4805 21.8947 11.293 21.7071L3.2864 13.7006C0.270699 10.6284 0.327319 6.41921 2.87235 3.87352C3.4668 3.27716 4.1731 2.80397 4.95076 2.48106ZM7.40506 3.99176C6.82596 3.99176 6.25255 4.10608 5.71773 4.32815C5.1829 4.55023 4.69717 4.8757 4.2884 5.2859L4.28717 5.28713C2.59356 6.98074 2.38982 9.92928 4.71058 12.2963L12.0001 19.5858L19.2895 12.2963C21.6103 9.92929 21.4066 6.98074 19.713 5.28713L19.7117 5.2859C19.303 4.8757 18.8172 4.55023 18.2824 4.32815C17.7476 4.10608 17.1742 3.99176 16.5951 3.99176C16.016 3.99176 15.4426 4.10608 14.9077 4.32815C14.3736 4.54994 13.8884 4.87484 13.48 5.28428C13.4795 5.28482 13.4789 5.28536 13.4784 5.2859L12.7117 6.06255C12.5238 6.25288 12.2675 6.36002 12.0001 6.36002C11.7326 6.36002 11.4763 6.25288 11.2884 6.06255L10.5217 5.2859C10.5212 5.28536 10.5207 5.28482 10.5201 5.28428C10.1117 4.87484 9.62652 4.54994 9.0924 4.32815C8.55757 4.10608 7.98416 3.99176 7.40506 3.99176Z" fill="#1D1D21"/>
</svg>
