<svg width="24" height="18" viewBox="0 0 24 18" fill="none" xmlns="http://www.w3.org/2000/svg">
<path d="M22.6 0.8H1.8C1.24772 0.8 0.8 1.24772 0.8 1.8C0.8 2.35228 1.24772 2.8 1.8 2.8H22.6C23.1523 2.8 23.6 2.35228 23.6 1.8C23.6 1.24772 23.1523 0.8 22.6 0.8ZM14.6 15.2H1.8C1.24772 15.2 0.8 15.6477 0.8 16.2C0.8 16.7523 1.24772 17.2 1.8 17.2H14.6C15.1523 17.2 15.6 16.7523 15.6 16.2C15.6 15.6477 15.1523 15.2 14.6 15.2ZM22.6 8H1.8C1.24772 8 0.8 8.44772 0.8 9C0.8 9.55229 1.24772 10 1.8 10H22.6C23.1523 10 23.6 9.55229 23.6 9C23.6 8.44772 23.1523 8 22.6 8Z" fill="#1D1D21" stroke="#333333" stroke-width="0.4"/>
</svg>
