<svg width="15" height="15" viewBox="0 0 15 15" fill="none" xmlns="http://www.w3.org/2000/svg">
<path fill-rule="evenodd" clip-rule="evenodd" d="M6.59995 2.40001C4.28036 2.40001 2.39995 4.28042 2.39995 6.60001C2.39995 8.91961 4.28036 10.8 6.59995 10.8C8.91955 10.8 10.8 8.91961 10.8 6.60001C10.8 4.28042 8.91955 2.40001 6.59995 2.40001ZM1.19995 6.60001C1.19995 3.61767 3.61761 1.20001 6.59995 1.20001C9.58229 1.20001 12 3.61767 12 6.60001C12 9.58235 9.58229 12 6.59995 12C3.61761 12 1.19995 9.58235 1.19995 6.60001Z" fill="#1D1D21"/>
<path fill-rule="evenodd" clip-rule="evenodd" d="M9.56563 9.56575C9.79994 9.33144 10.1798 9.33144 10.4142 9.56575L13.0242 12.1758C13.2585 12.4101 13.2585 12.79 13.0242 13.0243C12.7898 13.2586 12.4099 13.2586 12.1756 13.0243L9.56563 10.4143C9.33131 10.18 9.33131 9.80007 9.56563 9.56575Z" fill="#1D1D21"/>
</svg>
