<svg width="22" height="22" viewBox="0 0 22 22" fill="none" xmlns="http://www.w3.org/2000/svg">
<path d="M15.1251 3.43763C15.125 2.6311 15.4085 1.85021 15.926 1.23159C16.4435 0.612973 17.162 0.196014 17.9559 0.0536651C18.7498 -0.0886836 19.5684 0.0526425 20.2686 0.452917C20.9688 0.853192 21.506 1.48693 21.7861 2.24324C22.0662 2.99956 22.0715 3.8303 21.801 4.59011C21.5305 5.34993 21.0014 5.99044 20.3064 6.39957C19.6113 6.80871 18.7946 6.96042 17.9989 6.82817C17.2033 6.69592 16.4796 6.28812 15.9542 5.67613L6.717 9.96613C6.92935 10.6391 6.92935 11.3611 6.717 12.0341L15.9542 16.3241C16.5095 15.6783 17.2848 15.2617 18.1298 15.1549C18.9747 15.0481 19.8293 15.2588 20.5277 15.7462C21.2262 16.2336 21.7189 16.9629 21.9103 17.7928C22.1017 18.6227 21.9782 19.4941 21.5637 20.2382C21.1492 20.9822 20.4733 21.5459 19.6669 21.8199C18.8605 22.094 17.981 22.059 17.199 21.7216C16.417 21.3842 15.788 20.7685 15.4341 19.9938C15.0802 19.2192 15.0264 18.3407 15.2832 17.5286L6.046 13.2386C5.58872 13.7715 4.9792 14.1516 4.29944 14.3277C3.61968 14.5039 2.90228 14.4676 2.24376 14.2238C1.58524 13.98 1.01717 13.5403 0.615993 12.964C0.214812 12.3877 -0.000244141 11.7023 -0.000244141 11.0001C-0.000244141 10.2979 0.214812 9.61256 0.615993 9.03623C1.01717 8.45991 1.58524 8.02027 2.24376 7.77647C2.90228 7.53266 3.61968 7.49638 4.29944 7.67251C4.9792 7.84863 5.58872 8.22872 6.046 8.76163L15.2832 4.47163C15.1781 4.13704 15.1248 3.78834 15.1251 3.43763Z" fill="#333333"/>
</svg>
